<svg width="32" height="32" viewBox="0 0 300 300" xmlns="http://www.w3.org/2000/svg">
  <rect width="300" height="300" rx="64" fill="#0d1117" />
  <path d="M150 22C110 37 55 46 45 46V145C45 215 95 265 150 285C205 265 255 215 255 145V46C245 46 190 37 150 22Z"
        fill="none" stroke="#2D82C4" stroke-width="14" stroke-linejoin="round" />
  <g stroke="#2D82C4" stroke-width="7" stroke-linecap="round" fill="none">
    <path d="M75 110C100 110 120 135 160 135H215" />
    <path d="M75 150C110 150 145 190 185 155H215" />
    <path d="M75 190C110 190 140 175 180 175H215" />
  </g>
  <g fill="#D32F2F">
    <circle cx="230" cy="135" r="4.5" />
    <circle cx="195" cy="165" r="4.5" />
    <circle cx="212" cy="165" r="4.5" />
  </g>
</svg>
